<mxfile host="65bd71144e">
    <diagram id="F-9tlHLPsDb9IHwIiYCw" name="Page-1">
        <mxGraphModel dx="484" dy="520" grid="1" gridSize="10" guides="1" tooltips="1" connect="1" arrows="1" fold="1" page="1" pageScale="1" pageWidth="850" pageHeight="1100" math="0" shadow="0">
            <root>
                <mxCell id="0"/>
                <mxCell id="1" parent="0"/>
                <mxCell id="u3pFqWNnexHuOcMTiNK0-1" value="&lt;font style=&quot;font-size: 14px;&quot;&gt;Patient&lt;/font&gt;" style="rounded=0;whiteSpace=wrap;html=1;fillColor=#dae8fc;strokeColor=#6c8ebf;" parent="1" vertex="1">
                    <mxGeometry x="10" y="200" width="120" height="60" as="geometry"/>
                </mxCell>
                <mxCell id="u3pFqWNnexHuOcMTiNK0-2" value="&lt;font style=&quot;font-size: 14px;&quot;&gt;Colonoscopy&lt;/font&gt;" style="rounded=0;whiteSpace=wrap;html=1;fillColor=#d5e8d4;strokeColor=#82b366;" parent="1" vertex="1">
                    <mxGeometry x="150" y="200" width="120" height="60" as="geometry"/>
                </mxCell>
                <mxCell id="u3pFqWNnexHuOcMTiNK0-3" value="&lt;font style=&quot;font-size: 14px;&quot;&gt;Polyp 1&lt;/font&gt;" style="rounded=1;whiteSpace=wrap;html=1;fillColor=#ffe6cc;strokeColor=#d79b00;" parent="1" vertex="1">
                    <mxGeometry x="340" y="60" width="120" height="60" as="geometry"/>
                </mxCell>
                <mxCell id="u3pFqWNnexHuOcMTiNK0-4" value="&lt;font style=&quot;font-size: 14px;&quot;&gt;Polyp 2&lt;/font&gt;" style="rounded=1;whiteSpace=wrap;html=1;fillColor=#ffe6cc;strokeColor=#d79b00;" parent="1" vertex="1">
                    <mxGeometry x="340" y="140" width="120" height="60" as="geometry"/>
                </mxCell>
                <mxCell id="u3pFqWNnexHuOcMTiNK0-5" value="&lt;font style=&quot;font-size: 14px;&quot;&gt;Polyp N&lt;/font&gt;" style="rounded=1;whiteSpace=wrap;html=1;fillColor=#ffe6cc;strokeColor=#d79b00;" parent="1" vertex="1">
                    <mxGeometry x="340" y="300" width="120" height="60" as="geometry"/>
                </mxCell>
                <mxCell id="u3pFqWNnexHuOcMTiNK0-6" value="" style="shape=image;html=1;verticalAlign=top;verticalLabelPosition=bottom;labelBackgroundColor=#ffffff;imageAspect=0;image=https://cdn4.iconfinder.com/data/icons/essential-app-1/16/dot-more-menu-hide-128.png;rotation=270;aspect=fixed;flipH=0;fontStyle=0;horizontal=1;spacingTop=0;" parent="1" vertex="1">
                    <mxGeometry x="371" y="220" width="58" height="58" as="geometry"/>
                </mxCell>
                <mxCell id="u3pFqWNnexHuOcMTiNK0-9" value="" style="endArrow=classic;html=1;rounded=0;fontSize=6;exitX=1;exitY=0.5;exitDx=0;exitDy=0;" parent="1" source="u3pFqWNnexHuOcMTiNK0-5" edge="1">
                    <mxGeometry width="50" height="50" relative="1" as="geometry">
                        <mxPoint x="520" y="290" as="sourcePoint"/>
                        <mxPoint x="560" y="180" as="targetPoint"/>
                    </mxGeometry>
                </mxCell>
                <mxCell id="u3pFqWNnexHuOcMTiNK0-10" value="" style="endArrow=classic;html=1;rounded=0;fontSize=6;exitX=1;exitY=0.5;exitDx=0;exitDy=0;" parent="1" source="u3pFqWNnexHuOcMTiNK0-5" edge="1">
                    <mxGeometry width="50" height="50" relative="1" as="geometry">
                        <mxPoint x="470" y="480" as="sourcePoint"/>
                        <mxPoint x="560" y="240" as="targetPoint"/>
                    </mxGeometry>
                </mxCell>
                <mxCell id="u3pFqWNnexHuOcMTiNK0-11" value="" style="endArrow=classic;html=1;rounded=0;fontSize=6;exitX=1;exitY=0.5;exitDx=0;exitDy=0;" parent="1" edge="1">
                    <mxGeometry width="50" height="50" relative="1" as="geometry">
                        <mxPoint x="460" y="330" as="sourcePoint"/>
                        <mxPoint x="560" y="300" as="targetPoint"/>
                    </mxGeometry>
                </mxCell>
                <mxCell id="u3pFqWNnexHuOcMTiNK0-12" value="" style="endArrow=classic;html=1;rounded=0;fontSize=6;exitX=1;exitY=0.5;exitDx=0;exitDy=0;" parent="1" source="u3pFqWNnexHuOcMTiNK0-5" edge="1">
                    <mxGeometry width="50" height="50" relative="1" as="geometry">
                        <mxPoint x="460" y="330" as="sourcePoint"/>
                        <mxPoint x="560" y="360" as="targetPoint"/>
                    </mxGeometry>
                </mxCell>
                <mxCell id="u3pFqWNnexHuOcMTiNK0-13" value="" style="endArrow=classic;html=1;rounded=0;fontSize=6;" parent="1" edge="1">
                    <mxGeometry width="50" height="50" relative="1" as="geometry">
                        <mxPoint x="460" y="330" as="sourcePoint"/>
                        <mxPoint x="560" y="480" as="targetPoint"/>
                    </mxGeometry>
                </mxCell>
                <mxCell id="u3pFqWNnexHuOcMTiNK0-14" value="" style="endArrow=classic;html=1;rounded=0;fontSize=6;exitX=1;exitY=0.5;exitDx=0;exitDy=0;" parent="1" source="u3pFqWNnexHuOcMTiNK0-5" edge="1">
                    <mxGeometry width="50" height="50" relative="1" as="geometry">
                        <mxPoint x="500" y="350" as="sourcePoint"/>
                        <mxPoint x="560" y="420" as="targetPoint"/>
                    </mxGeometry>
                </mxCell>
                <mxCell id="u3pFqWNnexHuOcMTiNK0-15" value="&lt;font style=&quot;font-size: 14px;&quot;&gt;size&lt;/font&gt;" style="rounded=1;whiteSpace=wrap;html=1;fontSize=6;" parent="1" vertex="1">
                    <mxGeometry x="560" y="150" width="120" height="50" as="geometry"/>
                </mxCell>
                <mxCell id="u3pFqWNnexHuOcMTiNK0-16" value="&lt;font style=&quot;font-size: 14px;&quot;&gt;(location)&lt;/font&gt;" style="rounded=1;whiteSpace=wrap;html=1;fontSize=6;" parent="1" vertex="1">
                    <mxGeometry x="560" y="210" width="120" height="50" as="geometry"/>
                </mxCell>
                <mxCell id="u3pFqWNnexHuOcMTiNK0-17" value="&lt;font style=&quot;font-size: 14px;&quot;&gt;histopathology&lt;/font&gt;" style="rounded=1;whiteSpace=wrap;html=1;fontSize=6;" parent="1" vertex="1">
                    <mxGeometry x="560" y="270" width="120" height="50" as="geometry"/>
                </mxCell>
                <mxCell id="u3pFqWNnexHuOcMTiNK0-18" value="&lt;font style=&quot;font-size: 13px;&quot;&gt;severe dysplasia?&lt;/font&gt;" style="rounded=1;whiteSpace=wrap;html=1;fontSize=6;" parent="1" vertex="1">
                    <mxGeometry x="560" y="330" width="120" height="50" as="geometry"/>
                </mxCell>
                <mxCell id="u3pFqWNnexHuOcMTiNK0-19" value="&lt;font style=&quot;font-size: 14px;&quot;&gt;resected piecemeal?&lt;/font&gt;" style="rounded=1;whiteSpace=wrap;html=1;fontSize=6;" parent="1" vertex="1">
                    <mxGeometry x="560" y="390" width="120" height="50" as="geometry"/>
                </mxCell>
                <mxCell id="u3pFqWNnexHuOcMTiNK0-20" value="&lt;font style=&quot;font-size: 14px;&quot;&gt;evidence of malignancy?&lt;/font&gt;" style="rounded=1;whiteSpace=wrap;html=1;fontSize=6;" parent="1" vertex="1">
                    <mxGeometry x="560" y="450" width="120" height="50" as="geometry"/>
                </mxCell>
                <mxCell id="u3pFqWNnexHuOcMTiNK0-21" value="" style="shape=umlActor;verticalLabelPosition=bottom;verticalAlign=top;html=1;outlineConnect=0;fontSize=14;" parent="1" vertex="1">
                    <mxGeometry x="55" y="280" width="30" height="60" as="geometry"/>
                </mxCell>
                <mxCell id="u3pFqWNnexHuOcMTiNK0-22" value="" style="endArrow=classic;html=1;rounded=0;fontSize=14;" parent="1" source="u3pFqWNnexHuOcMTiNK0-1" edge="1">
                    <mxGeometry width="50" height="50" relative="1" as="geometry">
                        <mxPoint x="130" y="280" as="sourcePoint"/>
                        <mxPoint x="150" y="230" as="targetPoint"/>
                    </mxGeometry>
                </mxCell>
                <mxCell id="u3pFqWNnexHuOcMTiNK0-23" value="" style="endArrow=classic;html=1;rounded=0;fontSize=14;entryX=0;entryY=0.5;entryDx=0;entryDy=0;" parent="1" target="u3pFqWNnexHuOcMTiNK0-3" edge="1">
                    <mxGeometry width="50" height="50" relative="1" as="geometry">
                        <mxPoint x="270" y="230" as="sourcePoint"/>
                        <mxPoint x="320" y="180" as="targetPoint"/>
                    </mxGeometry>
                </mxCell>
                <mxCell id="u3pFqWNnexHuOcMTiNK0-25" value="" style="endArrow=classic;html=1;rounded=0;fontSize=14;entryX=0;entryY=0.5;entryDx=0;entryDy=0;" parent="1" target="u3pFqWNnexHuOcMTiNK0-5" edge="1">
                    <mxGeometry width="50" height="50" relative="1" as="geometry">
                        <mxPoint x="270" y="230" as="sourcePoint"/>
                        <mxPoint x="320" y="180" as="targetPoint"/>
                    </mxGeometry>
                </mxCell>
                <mxCell id="u3pFqWNnexHuOcMTiNK0-26" value="" style="endArrow=classic;html=1;rounded=0;fontSize=14;exitX=1;exitY=0.5;exitDx=0;exitDy=0;entryX=0.008;entryY=0.617;entryDx=0;entryDy=0;entryPerimeter=0;" parent="1" source="u3pFqWNnexHuOcMTiNK0-2" target="u3pFqWNnexHuOcMTiNK0-4" edge="1">
                    <mxGeometry width="50" height="50" relative="1" as="geometry">
                        <mxPoint x="280" y="240" as="sourcePoint"/>
                        <mxPoint x="330" y="290" as="targetPoint"/>
                    </mxGeometry>
                </mxCell>
            </root>
        </mxGraphModel>
    </diagram>
</mxfile>